<svg xmlns="http://www.w3.org/2000/svg" xmlns:xlink="http://www.w3.org/1999/xlink" width="1080" zoomAndPan="magnify" viewBox="0 0 810 809.999993" height="1080" preserveAspectRatio="xMidYMid meet" version="1.0"><defs><filter x="0%" y="0%" width="100%" height="100%" id="1d3f468047"><feColorMatrix values="0 0 0 0 1 0 0 0 0 1 0 0 0 0 1 0 0 0 1 0" color-interpolation-filters="sRGB"/></filter><clipPath id="04529bc1bd"><path d="M 405 0 C 181.324219 0 0 181.324219 0 405 C 0 628.675781 181.324219 810 405 810 C 628.675781 810 810 628.675781 810 405 C 810 181.324219 628.675781 0 405 0 Z M 405 0 " clip-rule="nonzero"/></clipPath><clipPath id="d74c2ce58f"><path d="M 596.683594 308.15625 L 734.800781 308.15625 L 734.800781 373 L 596.683594 373 Z M 596.683594 308.15625 " clip-rule="nonzero"/></clipPath><clipPath id="8c20d826e7"><path d="M 605.101562 335.925781 C 614.625 329.175781 622.726562 324.523438 629.175781 321.824219 C 635.625 319.125 642.300781 317.476562 649.125 315.601562 C 656.25 313.648438 663.601562 311.476562 671.023438 310.273438 C 678.523438 309.074219 686.398438 308.476562 694.050781 308.398438 C 701.773438 308.324219 711.449219 307.949219 717.300781 309.75 C 721.351562 310.949219 724.425781 313.5 726.75 315.300781 C 728.324219 316.5 729.226562 317.476562 730.273438 318.824219 C 731.324219 320.101562 732.148438 321.523438 732.824219 323.023438 C 733.5 324.523438 734.023438 326.175781 734.324219 327.824219 C 734.625 329.398438 734.773438 331.125 734.625 332.773438 C 734.550781 334.425781 734.25 336.074219 733.800781 337.648438 C 733.273438 339.226562 732.601562 340.800781 731.699219 342.148438 C 730.875 343.574219 729.824219 344.925781 728.699219 346.125 C 727.5 347.25 726.148438 348.300781 724.726562 349.199219 C 723.375 350.023438 721.800781 350.699219 720.226562 351.226562 C 718.648438 351.75 717 352.050781 715.351562 352.125 C 713.699219 352.199219 711.976562 352.125 710.398438 351.824219 C 708.75 351.523438 705.601562 350.398438 705.601562 350.398438 C 705.601562 350.398438 710.476562 351.898438 710.476562 351.898438 C 710.550781 351.824219 706.125 350.699219 704.175781 349.648438 C 702.300781 348.601562 700.425781 347.175781 698.925781 345.601562 C 697.425781 343.949219 696.148438 342 695.25 339.976562 C 694.351562 338.023438 693.75 335.773438 693.523438 333.523438 C 693.300781 331.351562 693.449219 329.023438 693.976562 326.925781 C 694.425781 324.75 695.324219 322.574219 696.523438 320.699219 C 697.648438 318.824219 699.226562 317.101562 700.875 315.675781 C 702.601562 314.25 704.550781 313.125 706.648438 312.300781 C 708.675781 311.550781 711 311.023438 713.175781 310.949219 C 715.351562 310.875 717.675781 311.101562 719.773438 311.699219 C 721.875 312.375 724.050781 313.351562 725.851562 314.625 C 727.648438 315.824219 729.300781 317.476562 730.648438 319.273438 C 731.925781 321 732.976562 323.101562 733.648438 325.199219 C 734.324219 327.226562 734.699219 329.550781 734.699219 331.800781 C 734.625 333.976562 734.25 336.300781 733.5 338.324219 C 732.824219 340.425781 731.699219 342.449219 730.351562 344.175781 C 729 345.898438 727.273438 347.550781 725.476562 348.75 C 723.601562 349.949219 721.5 350.925781 719.398438 351.449219 C 717.226562 352.050781 714.898438 352.273438 712.726562 352.125 C 710.550781 351.976562 708.226562 351.449219 706.199219 350.625 C 704.175781 349.800781 702.226562 348.523438 700.574219 347.101562 C 698.851562 345.675781 697.351562 343.875 696.300781 342 C 695.175781 340.125 694.351562 337.875 693.898438 335.773438 C 693.449219 333.601562 693.300781 331.273438 693.601562 329.101562 C 693.824219 326.925781 694.5 324.675781 695.476562 322.648438 C 696.375 320.699219 697.726562 318.75 699.226562 317.175781 C 700.800781 315.601562 702.675781 314.25 704.625 313.199219 C 706.574219 312.226562 708.523438 311.398438 710.925781 311.175781 C 714.226562 310.875 719.625 311.699219 722.476562 312.75 C 724.351562 313.351562 725.476562 314.25 726.75 315.300781 C 728.023438 316.273438 729.226562 317.476562 730.273438 318.824219 C 731.324219 320.101562 732.148438 321.523438 732.824219 323.023438 C 733.5 324.523438 734.023438 326.175781 734.324219 327.824219 C 734.625 329.398438 734.773438 331.125 734.625 332.773438 C 734.550781 334.425781 734.25 336.074219 733.800781 337.648438 C 733.273438 339.226562 732.601562 340.800781 731.699219 342.148438 C 730.875 343.574219 729.824219 344.925781 728.699219 346.125 C 727.5 347.25 726.148438 348.300781 724.800781 349.199219 C 723.375 350.023438 721.800781 350.699219 720.226562 351.226562 C 718.648438 351.75 717 352.050781 715.351562 352.125 C 713.699219 352.199219 712.351562 352.125 710.398438 351.824219 C 707.398438 351.449219 703.648438 349.875 699.300781 349.648438 C 693.074219 349.199219 683.851562 350.101562 676.5 351.226562 C 669.375 352.425781 662.699219 354.226562 655.875 356.476562 C 648.898438 358.726562 640.726562 361.875 635.25 364.800781 C 631.351562 366.898438 628.425781 370.050781 625.726562 371.324219 C 623.925781 372.148438 622.574219 372.449219 620.925781 372.675781 C 619.273438 372.976562 617.625 373.050781 615.976562 372.898438 C 614.324219 372.824219 612.675781 372.449219 611.101562 371.925781 C 609.523438 371.398438 607.949219 370.726562 606.601562 369.824219 C 605.175781 368.925781 603.824219 367.875 602.699219 366.675781 C 601.574219 365.550781 600.523438 364.125 599.699219 362.773438 C 598.875 361.351562 598.199219 359.773438 597.75 358.199219 C 597.300781 356.625 597 354.898438 596.925781 353.25 C 596.851562 351.601562 597 349.949219 597.300781 348.300781 C 597.601562 346.726562 598.199219 345.074219 598.875 343.574219 C 599.550781 342.074219 600.449219 340.648438 601.5 339.375 C 602.550781 338.101562 605.101562 335.925781 605.101562 335.925781 " clip-rule="nonzero"/></clipPath><mask id="f87eea5b69"><g filter="url(#1d3f468047)"><rect x="-81" width="972" fill="#000000" y="-80.999999" height="971.999992" fill-opacity="0.91"/></g></mask><clipPath id="924037f1bf"><path d="M 0.683594 0.15625 L 138.800781 0.15625 L 138.800781 65 L 0.683594 65 Z M 0.683594 0.15625 " clip-rule="nonzero"/></clipPath><clipPath id="dad78c640a"><path d="M 9.101562 27.925781 C 18.625 21.175781 26.726562 16.523438 33.175781 13.824219 C 39.625 11.125 46.300781 9.476562 53.125 7.601562 C 60.25 5.648438 67.601562 3.476562 75.023438 2.273438 C 82.523438 1.074219 90.398438 0.476562 98.050781 0.398438 C 105.773438 0.324219 115.449219 -0.0507812 121.300781 1.75 C 125.351562 2.949219 128.425781 5.5 130.75 7.300781 C 132.324219 8.5 133.226562 9.476562 134.273438 10.824219 C 135.324219 12.101562 136.148438 13.523438 136.824219 15.023438 C 137.5 16.523438 138.023438 18.175781 138.324219 19.824219 C 138.625 21.398438 138.773438 23.125 138.625 24.773438 C 138.550781 26.425781 138.25 28.074219 137.800781 29.648438 C 137.273438 31.226562 136.601562 32.800781 135.699219 34.148438 C 134.875 35.574219 133.824219 36.925781 132.699219 38.125 C 131.5 39.25 130.148438 40.300781 128.726562 41.199219 C 127.375 42.023438 125.800781 42.699219 124.226562 43.226562 C 122.648438 43.75 121 44.050781 119.351562 44.125 C 117.699219 44.199219 115.976562 44.125 114.398438 43.824219 C 112.75 43.523438 109.601562 42.398438 109.601562 42.398438 C 109.601562 42.398438 114.476562 43.898438 114.476562 43.898438 C 114.550781 43.824219 110.125 42.699219 108.175781 41.648438 C 106.300781 40.601562 104.425781 39.175781 102.925781 37.601562 C 101.425781 35.949219 100.148438 34 99.25 31.976562 C 98.351562 30.023438 97.75 27.773438 97.523438 25.523438 C 97.300781 23.351562 97.449219 21.023438 97.976562 18.925781 C 98.425781 16.75 99.324219 14.574219 100.523438 12.699219 C 101.648438 10.824219 103.226562 9.101562 104.875 7.675781 C 106.601562 6.25 108.550781 5.125 110.648438 4.300781 C 112.675781 3.550781 115 3.023438 117.175781 2.949219 C 119.351562 2.875 121.675781 3.101562 123.773438 3.699219 C 125.875 4.375 128.050781 5.351562 129.851562 6.625 C 131.648438 7.824219 133.300781 9.476562 134.648438 11.273438 C 135.925781 13 136.976562 15.101562 137.648438 17.199219 C 138.324219 19.226562 138.699219 21.550781 138.699219 23.800781 C 138.625 25.976562 138.25 28.300781 137.5 30.324219 C 136.824219 32.425781 135.699219 34.449219 134.351562 36.175781 C 133 37.898438 131.273438 39.550781 129.476562 40.75 C 127.601562 41.949219 125.5 42.925781 123.398438 43.449219 C 121.226562 44.050781 118.898438 44.273438 116.726562 44.125 C 114.550781 43.976562 112.226562 43.449219 110.199219 42.625 C 108.175781 41.800781 106.226562 40.523438 104.574219 39.101562 C 102.851562 37.675781 101.351562 35.875 100.300781 34 C 99.175781 32.125 98.351562 29.875 97.898438 27.773438 C 97.449219 25.601562 97.300781 23.273438 97.601562 21.101562 C 97.824219 18.925781 98.5 16.675781 99.476562 14.648438 C 100.375 12.699219 101.726562 10.75 103.226562 9.175781 C 104.800781 7.601562 106.675781 6.25 108.625 5.199219 C 110.574219 4.226562 112.523438 3.398438 114.925781 3.175781 C 118.226562 2.875 123.625 3.699219 126.476562 4.75 C 128.351562 5.351562 129.476562 6.25 130.75 7.300781 C 132.023438 8.273438 133.226562 9.476562 134.273438 10.824219 C 135.324219 12.101562 136.148438 13.523438 136.824219 15.023438 C 137.5 16.523438 138.023438 18.175781 138.324219 19.824219 C 138.625 21.398438 138.773438 23.125 138.625 24.773438 C 138.550781 26.425781 138.25 28.074219 137.800781 29.648438 C 137.273438 31.226562 136.601562 32.800781 135.699219 34.148438 C 134.875 35.574219 133.824219 36.925781 132.699219 38.125 C 131.5 39.25 130.148438 40.300781 128.800781 41.199219 C 127.375 42.023438 125.800781 42.699219 124.226562 43.226562 C 122.648438 43.75 121 44.050781 119.351562 44.125 C 117.699219 44.199219 116.351562 44.125 114.398438 43.824219 C 111.398438 43.449219 107.648438 41.875 103.300781 41.648438 C 97.074219 41.199219 87.851562 42.101562 80.5 43.226562 C 73.375 44.425781 66.699219 46.226562 59.875 48.476562 C 52.898438 50.726562 44.726562 53.875 39.25 56.800781 C 35.351562 58.898438 32.425781 62.050781 29.726562 63.324219 C 27.925781 64.148438 26.574219 64.449219 24.925781 64.675781 C 23.273438 64.976562 21.625 65.050781 19.976562 64.898438 C 18.324219 64.824219 16.675781 64.449219 15.101562 63.925781 C 13.523438 63.398438 11.949219 62.726562 10.601562 61.824219 C 9.175781 60.925781 7.824219 59.875 6.699219 58.675781 C 5.574219 57.550781 4.523438 56.125 3.699219 54.773438 C 2.875 53.351562 2.199219 51.773438 1.75 50.199219 C 1.300781 48.625 1 46.898438 0.925781 45.25 C 0.851562 43.601562 1 41.949219 1.300781 40.300781 C 1.601562 38.726562 2.199219 37.074219 2.875 35.574219 C 3.550781 34.074219 4.449219 32.648438 5.5 31.375 C 6.550781 30.101562 9.101562 27.925781 9.101562 27.925781 " clip-rule="nonzero"/></clipPath><clipPath id="702aababe3"><rect x="0" width="139" y="0" height="65"/></clipPath></defs><g clip-path="url(#04529bc1bd)"><rect x="-81" width="972" fill="#ffffff" y="-80.999999" height="971.999992" fill-opacity="1"/></g><path fill="#6366f2" d="M 647.820312 337.121094 C 647.820312 325.511719 657.378906 315.785156 669.171875 315.398438 C 680.96875 315.007812 690.527344 324.109375 690.527344 335.722656 Z M 244.691406 605.414062 C 233.226562 603.082031 226.15625 591.964844 228.90625 580.582031 C 231.65625 569.203125 243.183594 561.867188 254.652344 564.199219 Z M 690.527344 335.722656 C 690.527344 399.777344 658.300781 458.398438 730.019531 520.464844 L 701.234375 552.476562 C 611.054688 474.425781 647.820312 381.109375 647.820312 337.121094 Z M 730.019531 520.464844 C 736.464844 526.042969 742.878906 533.46875 745.265625 543.085938 C 748.019531 554.179688 744.558594 564.511719 738.042969 572.300781 C 732.292969 579.179688 724.46875 583.847656 717.269531 587.171875 C 709.761719 590.640625 701.039062 593.5 691.703125 595.925781 C 654.886719 605.5 598.703125 610.746094 539.707031 613.308594 C 480.191406 615.894531 416.019531 615.8125 362.269531 614.1875 C 309.242188 612.582031 264.410156 609.421875 244.691406 605.414062 L 254.652344 564.199219 C 270.222656 567.363281 311.398438 570.507812 365 572.132812 C 417.886719 573.734375 480.972656 573.808594 539.242188 571.277344 C 598.03125 568.71875 650.167969 563.570312 682.097656 555.269531 C 689.953125 553.226562 695.941406 551.152344 700.207031 549.183594 C 704.777344 547.070312 705.78125 545.796875 705.445312 546.199219 C 704.347656 547.515625 702.886719 550.835938 703.757812 554.347656 C 704.265625 556.382812 704.914062 555.65625 701.234375 552.476562 Z M 730.019531 520.464844 " fill-opacity="0.9" fill-rule="nonzero"/><path stroke-linecap="round" transform="matrix(2.649551, 0, 0, 2.649551, -114.051716, -124.913763)" fill="none" stroke-linejoin="round" d="M 268.756126 156.202671 C 269.304568 148.393269 268.391972 141.338712 265.13228 134.34755 " stroke="#000000" stroke-width="16" stroke-opacity="0.9" stroke-miterlimit="4"/><path stroke-linecap="round" transform="matrix(2.649551, 0, 0, 2.649551, -114.051716, -124.913763)" fill="none" stroke-linejoin="round" d="M 235.417631 132.551845 C 233.450906 126.989286 229.390665 122.460216 225.452792 117.981272 " stroke="#000000" stroke-width="16" stroke-opacity="0.9" stroke-miterlimit="4"/><path stroke-linecap="round" transform="matrix(2.649551, 0, 0, 2.649551, -114.051716, -124.913763)" fill="none" stroke-linejoin="round" d="M 192.737929 114.024234 C 190.228659 108.177134 186.575327 103.736522 183.355442 98.999575 " stroke="#000000" stroke-width="16" stroke-opacity="0.9" stroke-miterlimit="4"/><path stroke-linecap="round" transform="matrix(2.649551, 0, 0, 2.649551, -114.051716, -124.913763)" fill="none" stroke-linejoin="round" d="M 138.481972 115.616485 C 134.548522 112.464417 127.455633 110.497692 123.989538 109.54529 " stroke="#000000" stroke-width="16" stroke-opacity="0.9" stroke-miterlimit="4"/><path stroke-linecap="round" transform="matrix(2.649551, 0, 0, 2.649551, -114.051716, -124.913763)" fill="none" stroke-linejoin="round" d="M 101.612512 139.27026 C 97.934117 136.022362 89.726652 134.564273 88.026777 134.41242 " stroke="#000000" stroke-width="16" stroke-opacity="0.9" stroke-miterlimit="4"/><path stroke-linecap="round" transform="matrix(2.649551, 0, 0, 2.649551, -114.051716, -124.913763)" fill="none" stroke-linejoin="round" d="M 79.060044 178.815586 C 74.208101 179.014617 69.303083 178.794945 64.56761 178.410151 " stroke="#000000" stroke-width="16" stroke-opacity="0.9" stroke-miterlimit="4"/><path stroke-linecap="round" transform="matrix(2.649551, 0, 0, 2.649551, -114.051716, -124.913763)" fill="none" stroke-linejoin="round" d="M 78.688519 220.261293 C 75.417032 222.113022 68.906495 223.624186 66.913232 224.309739 " stroke="#000000" stroke-width="16" stroke-opacity="0.9" stroke-miterlimit="4"/><path stroke-linecap="round" transform="matrix(2.649551, 0, 0, 2.649551, -114.051716, -124.913763)" fill="none" stroke-linejoin="round" d="M 98.790689 255.672663 C 97.204335 258.721529 93.602604 261.356115 91.544472 263.362646 " stroke="#000000" stroke-width="16" stroke-opacity="0.9" stroke-miterlimit="4"/><path stroke-linecap="round" transform="matrix(2.649551, 0, 0, 2.649551, -114.051716, -124.913763)" fill="none" stroke-linejoin="round" d="M 274.495601 237.854194 C 274.843538 236.649685 275.100067 235.424536 275.400826 234.211182 " stroke="#000000" stroke-width="16" stroke-opacity="0.9" stroke-miterlimit="4"/><path stroke-linecap="round" transform="matrix(2.649551, 0, 0, 2.649551, -114.051716, -124.913763)" fill="none" stroke-linejoin="round" d="M 245.174592 294.305393 C 239.974712 292.627632 233.262194 294.305393 225.237543 279.282209 " stroke="#000000" stroke-width="16" stroke-opacity="0.9" stroke-miterlimit="4"/><path stroke-linecap="round" transform="matrix(2.649551, 0, 0, 2.649551, -114.051716, -124.913763)" fill="none" stroke-linejoin="round" d="M 137.277463 291.086982 C 132.581797 290.895322 124.381703 291.086982 119.686037 288.142792 " stroke="#000000" stroke-width="16" stroke-opacity="0.9" stroke-miterlimit="4"/><g clip-path="url(#d74c2ce58f)"><g clip-path="url(#8c20d826e7)"><g mask="url(#f87eea5b69)"><g transform="matrix(1, 0, 0, 1, 596, 308)"><g clip-path="url(#702aababe3)"><g clip-path="url(#924037f1bf)"><g clip-path="url(#dad78c640a)"><rect x="-774.2" width="1166.4" fill="#6366f2" height="1166.39999" y="-486.199998" fill-opacity="1"/></g></g></g></g></g></g></g></svg>