<svg xmlns="http://www.w3.org/2000/svg" xmlns:xlink="http://www.w3.org/1999/xlink" width="1080" zoomAndPan="magnify" viewBox="0 0 810 809.999993" height="1080" preserveAspectRatio="xMidYMid meet" version="1.0"><defs><clipPath id="9ae32d8f32"><path d="M 405 0 C 181.324219 0 0 181.324219 0 405 C 0 628.675781 181.324219 810 405 810 C 628.675781 810 810 628.675781 810 405 C 810 181.324219 628.675781 0 405 0 Z M 405 0 " clip-rule="nonzero"/></clipPath></defs><g clip-path="url(#9ae32d8f32)"><rect x="-81" width="972" fill="#ffffff" y="-80.999999" height="971.999992" fill-opacity="1"/></g><path fill="#ff5757" d="M 647.820312 337.121094 C 647.820312 325.511719 657.378906 315.785156 669.171875 315.398438 C 680.96875 315.007812 690.527344 324.109375 690.527344 335.722656 Z M 244.691406 605.414062 C 233.226562 603.082031 226.15625 591.964844 228.90625 580.582031 C 231.65625 569.203125 243.183594 561.867188 254.652344 564.199219 Z M 690.527344 335.722656 C 690.527344 399.777344 658.300781 458.398438 730.019531 520.464844 L 701.234375 552.476562 C 611.054688 474.425781 647.820312 381.109375 647.820312 337.121094 Z M 730.019531 520.464844 C 736.464844 526.042969 742.878906 533.46875 745.265625 543.085938 C 748.019531 554.179688 744.558594 564.511719 738.042969 572.300781 C 732.292969 579.179688 724.46875 583.847656 717.269531 587.171875 C 709.761719 590.640625 701.039062 593.5 691.703125 595.925781 C 654.886719 605.5 598.703125 610.746094 539.707031 613.308594 C 480.191406 615.894531 416.019531 615.8125 362.269531 614.1875 C 309.242188 612.582031 264.410156 609.421875 244.691406 605.414062 L 254.652344 564.199219 C 270.222656 567.363281 311.398438 570.507812 365 572.132812 C 417.886719 573.734375 480.972656 573.808594 539.242188 571.277344 C 598.03125 568.71875 650.167969 563.570312 682.097656 555.269531 C 689.953125 553.226562 695.941406 551.152344 700.207031 549.183594 C 704.777344 547.070312 705.78125 545.796875 705.445312 546.199219 C 704.347656 547.515625 702.886719 550.835938 703.757812 554.347656 C 704.265625 556.382812 704.914062 555.65625 701.234375 552.476562 Z M 730.019531 520.464844 " fill-opacity="0.9" fill-rule="nonzero"/><path stroke-linecap="round" transform="matrix(2.649551, 0, 0, 2.649551, -114.051716, -124.913763)" fill="none" stroke-linejoin="round" d="M 268.756126 156.202671 C 269.304568 148.393269 268.391972 141.338712 265.13228 134.34755 " stroke="#000000" stroke-width="16" stroke-opacity="0.9" stroke-miterlimit="4"/><path stroke-linecap="round" transform="matrix(2.649551, 0, 0, 2.649551, -114.051716, -124.913763)" fill="none" stroke-linejoin="round" d="M 235.417631 132.551845 C 233.450906 126.989286 229.390665 122.460216 225.452792 117.981272 " stroke="#000000" stroke-width="16" stroke-opacity="0.9" stroke-miterlimit="4"/><path stroke-linecap="round" transform="matrix(2.649551, 0, 0, 2.649551, -114.051716, -124.913763)" fill="none" stroke-linejoin="round" d="M 192.737929 114.024234 C 190.228659 108.177134 186.575327 103.736522 183.355442 98.999575 " stroke="#000000" stroke-width="16" stroke-opacity="0.9" stroke-miterlimit="4"/><path stroke-linecap="round" transform="matrix(2.649551, 0, 0, 2.649551, -114.051716, -124.913763)" fill="none" stroke-linejoin="round" d="M 138.481972 115.616485 C 134.548522 112.464417 127.455633 110.497692 123.989538 109.54529 " stroke="#000000" stroke-width="16" stroke-opacity="0.9" stroke-miterlimit="4"/><path stroke-linecap="round" transform="matrix(2.649551, 0, 0, 2.649551, -114.051716, -124.913763)" fill="none" stroke-linejoin="round" d="M 101.612512 139.27026 C 97.934117 136.022362 89.726652 134.564273 88.026777 134.41242 " stroke="#000000" stroke-width="16" stroke-opacity="0.9" stroke-miterlimit="4"/><path stroke-linecap="round" transform="matrix(2.649551, 0, 0, 2.649551, -114.051716, -124.913763)" fill="none" stroke-linejoin="round" d="M 79.060044 178.815586 C 74.208101 179.014617 69.303083 178.794945 64.56761 178.410151 " stroke="#000000" stroke-width="16" stroke-opacity="0.9" stroke-miterlimit="4"/><path stroke-linecap="round" transform="matrix(2.649551, 0, 0, 2.649551, -114.051716, -124.913763)" fill="none" stroke-linejoin="round" d="M 78.688519 220.261293 C 75.417032 222.113022 68.906495 223.624186 66.913232 224.309739 " stroke="#000000" stroke-width="16" stroke-opacity="0.9" stroke-miterlimit="4"/><path stroke-linecap="round" transform="matrix(2.649551, 0, 0, 2.649551, -114.051716, -124.913763)" fill="none" stroke-linejoin="round" d="M 98.790689 255.672663 C 97.204335 258.721529 93.602604 261.356115 91.544472 263.362646 " stroke="#000000" stroke-width="16" stroke-opacity="0.9" stroke-miterlimit="4"/><path stroke-linecap="round" transform="matrix(2.649551, 0, 0, 2.649551, -114.051716, -124.913763)" fill="none" stroke-linejoin="round" d="M 274.495601 237.854194 C 274.843538 236.649685 275.100067 235.424536 275.400826 234.211182 " stroke="#000000" stroke-width="16" stroke-opacity="0.9" stroke-miterlimit="4"/><path stroke-linecap="round" transform="matrix(2.649551, 0, 0, 2.649551, -114.051716, -124.913763)" fill="none" stroke-linejoin="round" d="M 245.174592 294.305393 C 239.974712 292.627632 233.262194 294.305393 225.237543 279.282209 " stroke="#000000" stroke-width="16" stroke-opacity="0.9" stroke-miterlimit="4"/><path stroke-linecap="round" transform="matrix(2.649551, 0, 0, 2.649551, -114.051716, -124.913763)" fill="none" stroke-linejoin="round" d="M 137.277463 291.086982 C 132.581797 290.895322 124.381703 291.086982 119.686037 288.142792 " stroke="#000000" stroke-width="16" stroke-opacity="0.9" stroke-miterlimit="4"/></svg>