<svg width="41" height="41" viewBox="0 0 41 41" fill="none" xmlns="http://www.w3.org/2000/svg">
<path d="M19.0394 2.03985L25.3432 8.3436C25.5481 7.17044 26.1513 6.10382 27.0511 5.3237C28.9884 3.63885 31.8968 3.6491 33.8456 5.26604L33.8558 5.27373L33.8648 5.28142C33.9801 5.38264 34.0916 5.48642 34.1979 5.59404V5.56585L34.3004 5.70295C34.5362 5.9592 34.7424 6.23339 34.918 6.52167L35.6444 7.48517C35.6829 7.53385 35.72 7.58254 35.7559 7.63251L35.8469 7.75295L35.8392 7.75038C36.3837 8.55245 36.6489 9.46726 36.631 10.4026C36.6054 11.7299 36.0109 13.0022 35.023 13.9926C34.3014 14.7279 33.3347 15.1725 32.3068 15.2419L37.6804 20.6269C37.7406 20.6859 37.7957 20.7487 37.8495 20.8127L37.8508 20.7974L38.8514 22.0325C39.2701 22.5221 39.4886 23.1517 39.4632 23.7954C39.4377 24.4392 39.1703 25.0496 38.7143 25.5047L34.7463 29.4791C34.462 29.7646 34.1233 29.9901 33.7501 30.1422C33.377 30.2942 32.9771 30.3697 32.5743 30.3643C32.1714 30.3588 31.7737 30.2724 31.4049 30.1102C31.0361 29.948 30.7036 29.7133 30.4272 29.4202L30.4285 29.4381L29.2523 28.2337H29.283C29.0049 27.9345 28.7899 27.5823 28.6507 27.1982C28.5116 26.8141 28.4513 26.4059 28.4733 25.9979V25.9851L28.4759 25.9723C28.5156 25.41 28.3688 24.8502 28.0582 24.3797C27.0844 24.1273 25.8749 24.4323 25.0908 25.3381C24.4309 26.0979 24.2208 27.1869 24.4297 28.0595C24.896 28.3593 25.4367 28.4951 25.9723 28.4733C26.7012 28.438 27.4185 28.6663 27.9928 29.1165V29.1114L28.0287 29.1447C28.1107 29.2113 28.1889 29.2831 28.2644 29.3574L28.2901 29.383L28.3798 29.4765L29.5649 30.5964L29.5406 30.5938C30.0705 31.1657 30.3583 31.9206 30.3435 32.7002C30.3286 33.4797 30.0124 34.2232 29.4611 34.7745L25.5315 38.7118C24.6372 39.6087 23.2535 39.7048 22.2541 39.0014L22.2656 39.0295L21.0139 37.9789C20.8851 37.89 20.7646 37.7896 20.6538 37.6791L20.6487 37.674L20.6128 37.6432H20.6179L15.2854 32.3004C15.2175 33.2293 14.9023 34.2031 14.0682 35.0384C13.0688 36.0391 11.785 36.6285 10.4525 36.6503C9.50413 36.6667 8.57411 36.3877 7.79135 35.852L7.79391 35.8623L6.51779 34.9052C6.26492 34.7471 6.02615 34.5675 5.80413 34.3684L5.56966 34.1928H5.61579C4.67245 33.2603 4.11939 32.0037 4.06894 30.6782C4.01849 29.3528 4.47443 28.0578 5.34416 27.0563H5.34673C6.12048 26.1707 7.17308 25.5755 8.33076 25.3689L2.03854 19.0651C1.79885 18.8257 1.60871 18.5414 1.47898 18.2284C1.34925 17.9155 1.28247 17.58 1.28247 17.2412C1.28247 16.9025 1.34925 16.567 1.47898 16.2541C1.60871 15.9411 1.79885 15.6568 2.03854 15.4174L6.05141 11.3955C6.33256 11.1131 6.66661 10.8889 7.03447 10.7356C7.40232 10.5824 7.79677 10.5031 8.19527 10.5024C8.59377 10.5017 8.98851 10.5796 9.35691 10.7315C9.72532 10.8834 10.0602 11.1064 10.3423 11.3879C10.5127 11.5544 10.6626 11.7415 10.7869 11.9414L10.7895 11.9362L11.7043 13.5211L11.7004 13.5199C11.8465 13.7492 11.9464 14.0029 11.9939 14.286C12.0489 14.614 12.0195 14.9587 12.0028 15.1445L11.999 15.1944C11.99 15.37 12.0246 15.6019 12.1117 15.8722C13.2008 16.8293 14.8754 16.7396 15.853 15.6109C16.2645 15.1298 16.4907 14.5175 16.4907 13.8844C16.4907 13.2513 16.2645 12.639 15.853 12.1579L15.8517 12.1566C15.8082 12.1063 15.7629 12.0576 15.7159 12.0105C15.5103 11.9406 15.2968 11.8963 15.0804 11.8786L14.9254 11.9747L14.9202 11.9785C14.6823 12.1294 14.4142 12.2265 14.1348 12.2629C13.9245 12.2865 13.7115 12.267 13.5089 12.2058C13.3063 12.1446 13.1182 12.0428 12.9561 11.9068L12.8843 11.8581L12.7946 11.7684C12.7319 11.7043 12.6729 11.6403 12.6153 11.5736V11.5788L11.498 10.4269L11.4929 10.4244L11.4032 10.3347C11.1209 10.0523 10.8969 9.71716 10.7441 9.34827C10.5913 8.97938 10.5126 8.58401 10.5126 8.18473C10.5126 7.78545 10.5913 7.39007 10.7441 7.02119C10.8969 6.6523 11.1209 6.31712 11.4032 6.03479L15.3917 2.03857C15.6306 1.79797 15.9148 1.60701 16.2278 1.4767C16.5408 1.34638 16.8765 1.2793 17.2156 1.2793C17.5546 1.2793 17.8904 1.34638 18.2034 1.4767C18.5164 1.60701 18.8005 1.79797 19.0394 2.03857V2.03985ZM17.2111 3.84642C17.2111 3.84642 17.2085 3.84642 17.2047 3.85026L13.2162 7.84648C13.1365 7.92552 13.0872 8.03007 13.0769 8.14181C13.0666 8.25355 13.0959 8.36536 13.1598 8.45763L13.1649 8.46148L13.2546 8.55117C13.3008 8.5968 13.356 8.63241 13.4166 8.65578C13.4772 8.67914 13.542 8.68977 13.6069 8.68698H13.6159C14.4019 8.65026 15.186 8.79265 15.909 9.10339C16.6319 9.41414 17.2747 9.88511 17.7889 10.4807C18.6043 11.4278 19.0528 12.636 19.0528 13.8857C19.0528 15.1353 18.6043 16.3435 17.7889 17.2906C17.3225 17.8313 16.7497 18.2702 16.1062 18.5798C15.4627 18.8894 14.7623 19.0631 14.0487 19.09C13.3351 19.1169 12.6236 18.9965 11.9586 18.7363C11.2935 18.4761 10.6893 18.0817 10.1834 17.5776L10.1745 17.5686L10.1668 17.5596C9.65426 17.0344 9.25682 16.4081 8.99982 15.7207C8.74282 15.0333 8.6319 14.2999 8.67413 13.5673V13.5442C8.67773 13.4852 8.66874 13.4262 8.64775 13.3709C8.62676 13.3157 8.59426 13.2656 8.55241 13.2239L8.54473 13.2162L8.53576 13.2072C8.492 13.1628 8.43985 13.1275 8.38233 13.1034C8.32481 13.0793 8.26307 13.0669 8.20071 13.0669C8.13835 13.0669 8.07661 13.0793 8.01909 13.1034C7.96157 13.1275 7.90942 13.1628 7.86566 13.2072L3.85151 17.2291C3.84959 17.231 3.84787 17.2332 3.84638 17.2355L3.84382 17.238V17.2432C3.84363 17.2444 3.84363 17.2457 3.84382 17.247L3.84638 17.2496L3.85151 17.2573L11.3314 24.75C12.0592 25.4803 12.0592 26.6463 11.3314 27.3766C11.1196 27.5901 10.8585 27.7482 10.5712 27.8369C10.2838 27.9256 9.97905 27.9422 9.68376 27.8852C9.24178 27.8117 8.78835 27.8522 8.3664 28.0029C7.94444 28.1536 7.56791 28.4094 7.27245 28.7462C6.85845 29.2269 6.62999 29.8398 6.62835 30.4743C6.62671 31.1087 6.85198 31.7228 7.26348 32.2056V32.2069C7.49973 32.4822 7.79045 32.7056 8.11733 32.863C8.44421 33.0204 8.80016 33.1084 9.16273 33.1214C9.5253 33.1344 9.88663 33.0722 10.2239 32.9386C10.5613 32.805 10.8672 32.603 11.1226 32.3453C11.4161 32.0511 11.6359 31.6918 11.7642 31.2966C11.8924 30.9014 11.9255 30.4815 11.8606 30.071L11.858 30.0531L11.8555 30.0364C11.8145 29.7493 11.841 29.4566 11.9328 29.1815C12.0247 28.9064 12.1794 28.6565 12.3846 28.4515L12.4103 28.4259C13.1406 27.6956 14.3091 27.6956 15.0394 28.4259L22.4668 35.8687L22.4706 35.8713L22.4732 35.8738H22.4758L22.4783 35.8751H22.4809L22.4822 35.8738L22.4886 35.8687L26.4771 31.8725C26.522 31.828 26.5576 31.7752 26.5819 31.7169C26.6062 31.6586 26.6187 31.5961 26.6187 31.5329C26.6187 31.4698 26.6062 31.4073 26.5819 31.349C26.5576 31.2907 26.522 31.2379 26.4771 31.1934L26.4515 31.1678C26.405 31.1221 26.3497 31.0864 26.2888 31.063C26.228 31.0397 26.163 31.0291 26.0979 31.032H26.0902C25.3042 31.0686 24.5201 30.9262 23.7972 30.6154C23.0743 30.3047 22.4314 29.8338 21.9171 29.2382C21.1018 28.2912 20.6533 27.083 20.6533 25.8333C20.6533 24.5836 21.1018 23.3754 21.9171 22.4284C22.3837 21.8879 22.9567 21.4492 23.6002 21.1399C24.2438 20.8305 24.9441 20.657 25.6577 20.6302C26.3713 20.6034 27.0827 20.7238 27.7476 20.9841C28.4126 21.2443 29.0168 21.6387 29.5226 22.1427L29.5265 22.1452C30.0485 22.6642 30.4531 23.2892 30.7128 23.9779C30.9725 24.6667 31.0813 25.4032 31.0319 26.1376C31.0284 26.2044 31.0388 26.2711 31.0627 26.3336C31.0865 26.396 31.1232 26.4528 31.1703 26.5002C31.2141 26.5446 31.2662 26.5799 31.3238 26.604C31.3813 26.6281 31.443 26.6405 31.5054 26.6405C31.5677 26.6405 31.6295 26.6281 31.687 26.604C31.7445 26.5799 31.7967 26.5446 31.8404 26.5002L35.8674 22.4655C35.8693 22.4636 35.871 22.4614 35.8725 22.4591L35.8738 22.4566V22.454L35.8751 22.4514C35.8753 22.4502 35.8753 22.4489 35.8751 22.4476L35.8725 22.445L35.8674 22.4386L28.4003 14.9574C28.2271 14.7853 28.0897 14.5807 27.9959 14.3553C27.9021 14.13 27.8538 13.8883 27.8538 13.6441C27.8538 13.4 27.9021 13.1583 27.9959 12.9329C28.0897 12.7075 28.2271 12.5029 28.4003 12.3309C28.6121 12.1174 28.8732 11.9593 29.1605 11.8706C29.4479 11.7819 29.7527 11.7652 30.0479 11.8222C30.4602 11.8914 30.8829 11.8613 31.2812 11.7343C31.6794 11.6072 32.0415 11.387 32.3375 11.0919C32.5933 10.8354 32.7936 10.529 32.926 10.1918C33.0584 9.85469 33.12 9.49391 33.1072 9.13192C33.0943 8.76992 33.0072 8.41443 32.8512 8.08751C32.6952 7.76059 32.4737 7.46922 32.2004 7.23148C31.1947 6.40507 29.6982 6.41917 28.7334 7.2571C28.3946 7.55036 28.1363 7.92535 27.9831 8.34647C27.83 8.7676 27.787 9.22089 27.8583 9.66329L27.8609 9.67995L27.8634 9.6966C27.9364 10.2411 27.7853 10.8305 27.3343 11.2815L27.3086 11.3071C26.5783 12.0374 25.4111 12.0374 24.6808 11.3071L17.2431 3.86948L17.2265 3.85282C17.2245 3.85054 17.2224 3.84839 17.2201 3.84642H17.2175L17.2149 3.84385H17.2137L17.2111 3.84514V3.84642Z" fill="#5221E6"/>
</svg>
